<svg width="1024" height="1024" viewBox="0 0 1024 1024" xmlns="http://www.w3.org/2000/svg">

    <defs>
      <radialGradient id="sweep_030940e2" cx="512" cy="512" r="290.0" gradientUnits="userSpaceOnUse">
        <stop offset="0" stop-color="#0891b2" stop-opacity="0.42"/>
        <stop offset="0.58" stop-color="#0891b2" stop-opacity="0.20"/>
        <stop offset="1" stop-color="#0891b2" stop-opacity="0"/>
      </radialGradient>
      <filter id="glow_030940e2" x="-50%" y="-50%" width="200%" height="200%">
        <feGaussianBlur stdDeviation="10" result="blur"/>
        <feMerge>
          <feMergeNode in="blur"/>
          <feMergeNode in="SourceGraphic"/>
        </feMerge>
      </filter>
      <clipPath id="clip_030940e2">
        <circle cx="512" cy="512" r="290.0"/>
      </clipPath>
    </defs>
    

<g clip-path="url(#clip_030940e2)"><path d="M 512 512 L 512.00 222.00 A 290.0 290.0 0 0 1 774.83 389.44 Z" fill="url(#sweep_030940e2)"/>
<circle cx="512" cy="512" r="240" fill="none" stroke="#0891b2" stroke-width="36" opacity="0.28"/>
<line x1="512" y1="222.00" x2="512" y2="802.00" stroke="#0891b2" stroke-width="24" opacity="0.18"/>
<line x1="222.00" y1="512" x2="802.00" y2="512" stroke="#0891b2" stroke-width="24" opacity="0.18"/>
<ellipse cx="512" cy="512" rx="260" ry="170" fill="none" stroke="#0891b2" stroke-width="16" opacity="0.12"/>
<ellipse cx="512" cy="512" rx="170" ry="260" fill="none" stroke="#0891b2" stroke-width="16" opacity="0.12"/>
<ellipse cx="512" cy="512" rx="260" ry="170" fill="none" stroke="#0891b2" stroke-width="14" opacity="0.08" transform="rotate(45 512 512)"/>

          <g filter="url(#glow_030940e2)">
            <circle cx="690" cy="392" r="18" fill="#0891b2" opacity="0.95"/>
            <circle cx="402" cy="676" r="14" fill="#0891b2" opacity="0.85"/>
            <circle cx="610" cy="652" r="12" fill="#0891b2" opacity="0.75"/>
          </g>
        
<circle cx="512" cy="512" r="22" fill="#0891b2"/></g>
<circle cx="512" cy="512" r="345" fill="none" stroke="#0891b2" stroke-width="110" opacity="0.92"/>
</svg>