<svg width="2048" height="2048" viewBox="0 0 2048 2048" xmlns="http://www.w3.org/2000/svg">
  <rect width="2048" height="2048" fill="#0a0f0a"/>
  <g transform="translate(384.00 260.00) scale(1.25)">


    <defs>
      <radialGradient id="sweep_4fff69eb" cx="512" cy="512" r="290.0" gradientUnits="userSpaceOnUse">
        <stop offset="0" stop-color="#00ff88" stop-opacity="0.42"/>
        <stop offset="0.58" stop-color="#00ff88" stop-opacity="0.20"/>
        <stop offset="1" stop-color="#00ff88" stop-opacity="0"/>
      </radialGradient>
      <filter id="glow_4fff69eb" x="-50%" y="-50%" width="200%" height="200%">
        <feGaussianBlur stdDeviation="10" result="blur"/>
        <feMerge>
          <feMergeNode in="blur"/>
          <feMergeNode in="SourceGraphic"/>
        </feMerge>
      </filter>
      <clipPath id="clip_4fff69eb">
        <circle cx="512" cy="512" r="290.0"/>
      </clipPath>
    </defs>
    

<g clip-path="url(#clip_4fff69eb)"><path d="M 512 512 L 512.00 222.00 A 290.0 290.0 0 0 1 774.83 389.44 Z" fill="url(#sweep_4fff69eb)"/>
<circle cx="512" cy="512" r="240" fill="none" stroke="#00ff88" stroke-width="36" opacity="0.28"/>
<line x1="512" y1="222.00" x2="512" y2="802.00" stroke="#00ff88" stroke-width="24" opacity="0.18"/>
<line x1="222.00" y1="512" x2="802.00" y2="512" stroke="#00ff88" stroke-width="24" opacity="0.18"/>
<ellipse cx="512" cy="512" rx="260" ry="170" fill="none" stroke="#00ff88" stroke-width="16" opacity="0.12"/>
<ellipse cx="512" cy="512" rx="170" ry="260" fill="none" stroke="#00ff88" stroke-width="16" opacity="0.12"/>
<ellipse cx="512" cy="512" rx="260" ry="170" fill="none" stroke="#00ff88" stroke-width="14" opacity="0.08" transform="rotate(45 512 512)"/>

          <g filter="url(#glow_4fff69eb)">
            <circle cx="690" cy="392" r="18" fill="#00ff88" opacity="0.95"/>
            <circle cx="402" cy="676" r="14" fill="#00ff88" opacity="0.85"/>
            <circle cx="610" cy="652" r="12" fill="#00ff88" opacity="0.75"/>
          </g>
        
<circle cx="512" cy="512" r="22" fill="#00ff88"/></g>
<circle cx="512" cy="512" r="345" fill="none" stroke="#00ff88" stroke-width="110" opacity="0.92"/>

  </g>
  <text x="1024" y="1760" text-anchor="middle"
        font-family="Inter, system-ui, -apple-system, Segoe UI, Roboto, Helvetica, Arial, sans-serif"
        font-size="260" font-weight="650" letter-spacing="1">
    <tspan fill="#e0e0e0">Intel</tspan><tspan fill="#00ff88">HQ</tspan>
  </text>
</svg>